<?xml version="1.0" standalone="no"?>
<!DOCTYPE svg PUBLIC "-//W3C//DTD SVG 20010904//EN"
 "http://www.w3.org/TR/2001/REC-SVG-20010904/DTD/svg10.dtd">
<svg version="1.0" xmlns="http://www.w3.org/2000/svg"
 width="700.000000pt" height="700.000000pt" viewBox="0 0 700.000000 700.000000"
 preserveAspectRatio="xMidYMid meet">
<metadata>
Created by potrace 1.11, written by Peter Selinger 2001-2013
</metadata>
<g transform="translate(0.000000,700.000000) scale(0.100000,-0.100000)"
fill="#000000" stroke="none">
<path d="M3395 6293 c-160 -14 -304 -57 -480 -143 -268 -132 -516 -322 -855
-658 l-165 -164 37 -19 c21 -10 68 -26 105 -35 37 -8 102 -26 144 -39 125 -39
233 -21 328 54 48 38 330 153 457 186 249 65 540 27 610 -80 15 -23 22 -114
10 -134 -3 -5 -8 -26 -12 -47 -13 -92 -103 -458 -179 -729 -14 -49 -48 -179
-76 -288 -27 -110 -60 -213 -71 -230 -12 -18 -50 -57 -85 -87 -106 -91 -109
-94 -120 -115 -6 -11 -40 -124 -76 -250 -63 -223 -89 -319 -163 -605 -157
-607 -219 -844 -259 -985 -22 -79 -38 -161 -40 -209 -4 -70 -2 -83 21 -121 52
-90 180 -190 303 -236 123 -46 190 -58 321 -55 143 4 207 20 272 69 92 70 115
130 244 637 106 413 173 671 259 990 79 291 124 507 119 565 -2 19 -22 74 -45
122 -23 50 -41 103 -41 123 -1 19 22 114 50 210 28 96 69 247 92 335 67 257
129 466 155 521 57 126 192 204 345 199 119 -4 184 -33 285 -130 141 -135 257
-201 415 -236 52 -11 126 -29 164 -40 39 -10 86 -19 104 -19 42 0 98 26 105
48 3 9 17 50 32 90 15 40 62 209 105 375 43 166 87 334 97 372 21 78 17 138
-14 179 -24 32 -215 92 -388 122 -76 13 -312 12 -370 -2 -95 -23 -150 -27
-188 -15 -20 7 -70 45 -116 89 -63 60 -92 81 -133 94 -341 106 -550 160 -978
255 -158 34 -238 43 -325 36z"/>
<path d="M1991 4356 c-28 -15 -490 -467 -1207 -1180 -344 -342 -518 -522 -530
-548 -37 -81 -47 -69 671 -793 207 -209 432 -438 499 -510 208 -222 398 -415
469 -476 105 -92 134 -86 289 60 93 87 128 144 128 205 0 31 -9 46 -52 94 -29
31 -62 66 -73 78 -148 159 -563 586 -1029 1058 -98 100 -184 190 -192 201 -13
20 -13 33 -1 71 4 11 170 180 369 375 868 850 994 978 1006 1018 17 54 15 91
-5 129 -20 36 -182 186 -227 209 -39 20 -86 24 -115 9z"/>
<path d="M4944 4355 c-16 -6 -77 -59 -135 -117 -116 -115 -137 -154 -115 -216
14 -40 144 -177 806 -850 504 -512 540 -550 540 -564 0 -7 3 -22 6 -33 5 -21
40 14 -997 -1016 -202 -200 -374 -379 -383 -397 -42 -82 -16 -138 113 -245 47
-39 96 -82 108 -95 13 -14 38 -26 61 -29 35 -5 44 -1 82 33 163 147 1678 1662
1696 1696 20 38 20 102 1 132 -8 12 -106 114 -218 228 -790 800 -1247 1267
-1360 1391 -78 85 -139 110 -205 82z"/>
</g>
</svg>
